<svg xmlns="http://www.w3.org/2000/svg" viewBox="0 0 600 600" role="img"><rect width="600" height="600" rx="56" fill="#f8fafc"/><circle cx="90" cy="90" r="70" fill="#eef2ff"/><circle cx="520" cy="505" r="92" fill="#fef3c7"/><g transform="rotate(-20 300 300)"><rect x="180" y="92" width="70" height="390" rx="34" fill="#4f46e5"/><path d="M180 430h70l-35 92z" fill="#c7d2fe"/><path d="M207 500h16l-8 22z" fill="#312e81"/><rect x="180" y="112" width="70" height="66" rx="16" fill="#fbbf24"/><rect x="278" y="78" width="70" height="405" rx="34" fill="#fb7185"/><path d="M278 430h70l-35 92z" fill="#fecdd3"/><path d="M305 500h16l-8 22z" fill="#881337"/><rect x="278" y="105" width="70" height="62" rx="16" fill="#22c55e"/><rect x="375" y="110" width="70" height="370" rx="34" fill="#0ea5e9"/><path d="M375 430h70l-35 92z" fill="#bae6fd"/><path d="M402 500h16l-8 22z" fill="#0c4a6e"/><rect x="375" y="136" width="70" height="62" rx="16" fill="#fbbf24"/></g></svg>